<mxfile host="app.diagrams.net" modified="2023-11-09T15:16:29.212Z" agent="Mozilla/5.0 (X11; Linux x86_64) AppleWebKit/537.36 (KHTML, like Gecko) Chrome/119.0.0.0 Safari/537.36" version="22.1.0" etag="a892N7hcPtzzo5kJ2AZQ" type="github">
  <diagram name="Page-1" id="ii45pH5zluO586LPDaW5">
    <mxGraphModel>
      <root>
        <mxCell id="0" />
        <mxCell id="1" parent="0" />
      </root>
    </mxGraphModel>
  </diagram>
</mxfile>
